<?xml version="1.0" standalone="no"?><!DOCTYPE svg PUBLIC "-//W3C//DTD SVG 1.1//EN" "http://www.w3.org/Graphics/SVG/1.1/DTD/svg11.dtd"><svg class="icon" style="" viewBox="0 0 1024 1024" version="1.1" xmlns="http://www.w3.org/2000/svg" p-id="2416" xmlns:xlink="http://www.w3.org/1999/xlink" width="200" height="200"><defs><style type="text/css"><![CDATA[

]]></style></defs><path d="M900.212184 880.131335 123.786793 880.131335c-33.906228 0-61.397349-27.501354-61.397349-61.407582L62.389444 491.26884l143.261844-347.400175 607.161337 0 148.796908 347.400175 0 327.454914C961.609533 852.629981 934.128645 880.131335 900.212184 880.131335zM763.686764 184.28005 254.756683 184.28005 148.350235 429.871491l180.095751 0 0 40.931225c0 67.814502 52.423977 122.795721 120.237455 122.795721L572.758294 593.598436c67.813478 0 124.07383-54.981219 124.07383-122.795721l0-40.931225 181.374884 0L763.686764 184.28005zM921.957441 511.734964c0-22.604834-18.327414-40.932248-40.932248-40.932248L739.043505 470.802716c0 113.022123-53.264111 163.727968-166.285211 163.727968L448.683441 634.530684c-113.022123 0-161.16868-50.705845-161.16868-163.727968L144.252917 470.802716c-22.603811 0-40.931225 18.327414-40.931225 40.932248l0 286.522666c0 22.603811 18.327414 40.941458 40.931225 40.941458l736.772276 0c22.604834 0 40.932248-18.337647 40.932248-40.941458L921.957441 511.734964z" p-id="2417" fill="#2c2c2c"></path></svg>